<svg width="205" height="66" viewBox="0 0 205 66" fill="none" xmlns="http://www.w3.org/2000/svg">
<path d="M63.7423 20.56C63.7423 21.328 64.6063 21.736 66.3343 21.784C66.4303 21.784 66.5023 21.784 66.5503 21.784L66.5143 22H57.8743L57.8383 21.784C58.2223 21.76 58.5223 21.748 58.7383 21.748C58.9543 21.724 59.2303 21.676 59.5663 21.604C59.9263 21.532 60.1903 21.412 60.3583 21.244C60.5503 21.052 60.6463 20.824 60.6463 20.56V3.136L52.5823 21.568H51.6103L43.0423 3.064V20.56C43.0423 21.328 43.9063 21.736 45.6343 21.784C45.7303 21.784 45.8023 21.784 45.8503 21.784L45.8143 22H39.9823L39.9463 21.784C40.3303 21.76 40.6303 21.748 40.8463 21.748C41.0623 21.724 41.3383 21.676 41.6743 21.604C42.0343 21.532 42.2983 21.412 42.4663 21.244C42.6583 21.052 42.7543 20.824 42.7543 20.56V2.2C42.7543 1.432 41.9743 1.012 40.4143 0.939999C40.3663 0.939999 40.2823 0.939999 40.1623 0.939999H39.9463L39.9823 0.759999H45.1303L53.4823 18.616L61.2943 0.759999H66.5143L66.5503 0.939999C66.1663 0.963998 65.8663 0.987999 65.6503 1.012C65.4343 1.012 65.1463 1.048 64.7863 1.12C64.4503 1.192 64.1863 1.324 63.9943 1.516C63.8263 1.684 63.7423 1.912 63.7423 2.2V20.56ZM79.0018 22.324C75.8818 22.324 73.4338 21.28 71.6578 19.192C69.9058 17.08 69.0298 14.476 69.0298 11.38C69.0298 8.26 69.9178 5.632 71.6938 3.496C73.4698 1.36 75.9058 0.291998 79.0018 0.291998C82.0978 0.291998 84.5218 1.36 86.2738 3.496C88.0258 5.632 88.9018 8.26 88.9018 11.38C88.9018 14.476 88.0258 17.08 86.2738 19.192C84.5218 21.28 82.0978 22.324 79.0018 22.324ZM79.0018 22C81.3538 22 83.0578 21.1 84.1138 19.3C85.1938 17.5 85.7338 14.86 85.7338 11.38C85.7338 7.876 85.2058 5.212 84.1498 3.388C83.0938 1.54 81.3778 0.615999 79.0018 0.615999C74.4658 0.615999 72.1978 4.204 72.1978 11.38C72.1978 14.836 72.7378 17.476 73.8178 19.3C74.8978 21.1 76.6258 22 79.0018 22ZM111.287 0.759999L111.323 0.939999C110.939 0.963998 110.639 0.987999 110.423 1.012C110.207 1.012 109.919 1.048 109.559 1.12C109.223 1.192 108.959 1.324 108.767 1.516C108.599 1.684 108.515 1.912 108.515 2.2V22H108.191L94.5831 3.1V20.56C94.5831 21.328 95.4471 21.736 97.1751 21.784C97.2711 21.784 97.3431 21.784 97.3911 21.784L97.3551 22H91.4871L91.4511 21.784C91.8351 21.76 92.1351 21.748 92.3511 21.748C92.5671 21.724 92.8431 21.676 93.1791 21.604C93.5391 21.532 93.8031 21.412 93.9711 21.244C94.1631 21.052 94.2591 20.824 94.2591 20.56V2.2C94.2591 1.432 93.4791 1.012 91.9191 0.939999C91.8711 0.939999 91.7871 0.939999 91.6671 0.939999H91.4511L91.4871 0.759999H96.1671L108.191 17.5V2.2C108.191 1.432 107.411 1.012 105.851 0.939999C105.803 0.939999 105.719 0.939999 105.599 0.939999H105.383L105.419 0.759999H111.287ZM123.494 0.615999C126.95 0.615999 129.638 1.564 131.558 3.46C133.502 5.332 134.474 7.816 134.474 10.912C134.474 14.104 133.454 16.78 131.414 18.94C129.374 21.1 126.53 22.18 122.882 22.18C122.066 22.18 121.238 22.144 120.398 22.072C119.558 22.024 118.706 22 117.842 22H113.81L113.774 21.784C114.158 21.76 114.458 21.748 114.674 21.748C114.89 21.724 115.166 21.676 115.502 21.604C115.862 21.532 116.126 21.412 116.294 21.244C116.486 21.052 116.582 20.824 116.582 20.56V2.2C116.582 1.432 115.802 1.012 114.242 0.939999C114.194 0.939999 114.11 0.939999 113.99 0.939999H113.774L113.81 0.759999H118.13C118.586 0.759999 119.342 0.735999 120.398 0.688C121.478 0.639999 122.51 0.615999 123.494 0.615999ZM122.882 21.856C124.538 21.856 125.942 21.58 127.094 21.028C128.246 20.452 129.11 19.636 129.686 18.58C130.286 17.524 130.706 16.384 130.946 15.16C131.186 13.936 131.306 12.52 131.306 10.912C131.306 7.648 130.73 5.164 129.578 3.46C128.45 1.756 126.422 0.903999 123.494 0.903999C120.926 0.903999 119.642 1.132 119.642 1.588V21.172C119.642 21.628 120.722 21.856 122.882 21.856ZM147.346 22.324C144.226 22.324 141.778 21.28 140.002 19.192C138.25 17.08 137.374 14.476 137.374 11.38C137.374 8.26 138.262 5.632 140.038 3.496C141.814 1.36 144.25 0.291998 147.346 0.291998C150.442 0.291998 152.866 1.36 154.618 3.496C156.37 5.632 157.246 8.26 157.246 11.38C157.246 14.476 156.37 17.08 154.618 19.192C152.866 21.28 150.442 22.324 147.346 22.324ZM147.346 22C149.698 22 151.402 21.1 152.458 19.3C153.538 17.5 154.078 14.86 154.078 11.38C154.078 7.876 153.55 5.212 152.494 3.388C151.438 1.54 149.722 0.615999 147.346 0.615999C142.81 0.615999 140.542 4.204 140.542 11.38C140.542 14.836 141.082 17.476 142.162 19.3C143.242 21.1 144.97 22 147.346 22ZM20.3203 63.56C20.4643 63.944 20.7283 64.232 21.1123 64.424C21.4963 64.616 21.7843 64.724 21.9763 64.748C22.1683 64.748 22.5043 64.76 22.9843 64.784L22.9483 65H15.6043L15.5683 64.784C15.6163 64.784 15.7243 64.784 15.8923 64.784C16.0603 64.784 16.1803 64.784 16.2523 64.784C16.3243 64.76 16.4443 64.736 16.6123 64.712C16.8043 64.688 16.9123 64.652 16.9363 64.604C16.9843 64.556 17.0563 64.496 17.1523 64.424C17.2723 64.352 17.3083 64.268 17.2603 64.172C17.2123 64.052 17.1883 63.908 17.1883 63.74L16.0723 60.608H5.0203L4.2643 62.624C3.9283 63.488 3.9043 64.064 4.1923 64.352C4.4803 64.616 4.9603 64.76 5.6323 64.784L5.5963 65H0.808297L0.772297 64.784C1.3243 64.736 1.7203 64.688 1.9603 64.64C2.2243 64.592 2.5243 64.448 2.8603 64.208C3.1963 63.968 3.4603 63.62 3.6523 63.164L11.1403 43.688H11.1763L12.7243 43.364L20.3203 63.56ZM5.1643 60.284H15.9283L10.7083 45.74L5.1643 60.284ZM48.6076 63.56C48.6076 64.328 49.4716 64.736 51.1996 64.784C51.2956 64.784 51.3676 64.784 51.4156 64.784L51.3796 65H42.7396L42.7036 64.784C43.0876 64.76 43.3876 64.748 43.6036 64.748C43.8196 64.724 44.0956 64.676 44.4316 64.604C44.7916 64.532 45.0556 64.412 45.2236 64.244C45.4156 64.052 45.5116 63.824 45.5116 63.56V46.136L37.4476 64.568H36.4756L27.9076 46.064V63.56C27.9076 64.328 28.7716 64.736 30.4996 64.784C30.5956 64.784 30.6676 64.784 30.7156 64.784L30.6796 65H24.8476L24.8116 64.784C25.1956 64.76 25.4956 64.748 25.7116 64.748C25.9276 64.724 26.2036 64.676 26.5396 64.604C26.8996 64.532 27.1636 64.412 27.3316 64.244C27.5236 64.052 27.6196 63.824 27.6196 63.56V45.2C27.6196 44.432 26.8396 44.012 25.2796 43.94C25.2316 43.94 25.1476 43.94 25.0276 43.94H24.8116L24.8476 43.76H29.9956L38.3476 61.616L46.1596 43.76H51.3796L51.4156 43.94C51.0316 43.964 50.7316 43.988 50.5156 44.012C50.2996 44.012 50.0116 44.048 49.6516 44.12C49.3156 44.192 49.0516 44.324 48.8596 44.516C48.6916 44.684 48.6076 44.912 48.6076 45.2V63.56ZM72 63.56C72.144 63.944 72.408 64.232 72.792 64.424C73.176 64.616 73.464 64.724 73.656 64.748C73.848 64.748 74.184 64.76 74.664 64.784L74.628 65H67.284L67.248 64.784C67.296 64.784 67.404 64.784 67.572 64.784C67.74 64.784 67.86 64.784 67.932 64.784C68.004 64.76 68.124 64.736 68.292 64.712C68.484 64.688 68.592 64.652 68.616 64.604C68.664 64.556 68.736 64.496 68.832 64.424C68.952 64.352 68.988 64.268 68.94 64.172C68.892 64.052 68.868 63.908 68.868 63.74L67.752 60.608H56.7L55.944 62.624C55.608 63.488 55.584 64.064 55.872 64.352C56.16 64.616 56.64 64.76 57.312 64.784L57.276 65H52.488L52.452 64.784C53.004 64.736 53.4 64.688 53.64 64.64C53.904 64.592 54.204 64.448 54.54 64.208C54.876 63.968 55.14 63.62 55.332 63.164L62.82 43.688H62.856L64.404 43.364L72 63.56ZM56.844 60.284H67.608L62.388 45.74L56.844 60.284ZM95.6433 64.172L95.9313 64.64C95.4273 65.072 94.7313 65.288 93.8433 65.288C92.3073 65.288 91.1073 64.892 90.2433 64.1C89.4033 63.308 88.6713 62.252 88.0473 60.932C87.2553 59.636 86.6193 58.82 86.1393 58.484C85.4193 58.604 84.7473 58.664 84.1233 58.664C83.3313 58.664 82.9353 58.484 82.9353 58.124C82.9353 57.98 83.0433 57.86 83.2593 57.764C83.4993 57.644 83.7873 57.584 84.1233 57.584C84.9873 57.584 85.7433 57.656 86.3913 57.8C89.1993 56.72 90.6033 54.284 90.6033 50.492C90.6033 48.404 90.2193 46.784 89.4513 45.632C88.7073 44.48 87.6033 43.904 86.1393 43.904C83.5953 43.904 82.3233 44.132 82.3233 44.588V63.56C82.3233 64.304 83.1153 64.712 84.6993 64.784C84.7473 64.784 84.8193 64.784 84.9153 64.784H85.1313L85.0953 65H76.4913L76.4553 64.784C76.8393 64.76 77.1393 64.748 77.3553 64.748C77.5713 64.724 77.8473 64.676 78.1833 64.604C78.5433 64.532 78.8073 64.412 78.9753 64.244C79.1673 64.052 79.2633 63.824 79.2633 63.56V45.2C79.2633 44.432 78.4833 44.012 76.9233 43.94C76.8753 43.94 76.7913 43.94 76.6713 43.94H76.4553L76.4913 43.76H80.8113C81.2673 43.76 82.0233 43.736 83.0793 43.688C84.1353 43.64 85.1553 43.616 86.1393 43.616C88.4913 43.616 90.3273 44.264 91.6473 45.56C92.9673 46.832 93.6273 48.5 93.6273 50.564C93.6273 52.292 93.0633 53.84 91.9353 55.208C90.8073 56.576 89.3313 57.548 87.5073 58.124C89.1873 58.772 90.5793 60.188 91.6833 62.372C92.1393 63.236 92.5353 63.872 92.8713 64.28C93.2313 64.664 93.6633 64.856 94.1673 64.856C94.8393 64.856 95.3313 64.628 95.6433 64.172ZM107.25 65.324C104.13 65.324 101.682 64.28 99.9059 62.192C98.1539 60.08 97.2779 57.476 97.2779 54.38C97.2779 51.26 98.1659 48.632 99.9419 46.496C101.718 44.36 104.154 43.292 107.25 43.292C110.346 43.292 112.77 44.36 114.522 46.496C116.274 48.632 117.15 51.26 117.15 54.38C117.15 57.476 116.274 60.08 114.522 62.192C112.77 64.28 110.346 65.324 107.25 65.324ZM107.25 65C109.602 65 111.306 64.1 112.362 62.3C113.442 60.5 113.982 57.86 113.982 54.38C113.982 50.876 113.454 48.212 112.398 46.388C111.342 44.54 109.626 43.616 107.25 43.616C102.714 43.616 100.446 47.204 100.446 54.38C100.446 57.836 100.986 60.476 102.066 62.3C103.146 64.1 104.874 65 107.25 65ZM147.35 47.216C147.35 48.248 147.11 49.1 146.63 49.772C146.174 50.42 145.538 50.9 144.722 51.212C143.906 51.5 143.09 51.716 142.274 51.86C141.458 52.004 140.558 52.148 139.574 52.292C138.614 52.412 137.882 52.556 137.378 52.724C137.81 52.604 138.35 52.544 138.998 52.544C140.798 52.544 142.262 53.036 143.39 54.02C144.518 54.98 145.082 56.3 145.082 57.98C145.082 59.948 144.254 61.616 142.598 62.984C140.966 64.328 138.902 65 136.406 65C133.526 65 131.282 64.256 129.674 62.768C128.066 61.28 127.262 59.36 127.262 57.008C127.262 55.016 127.838 53.288 128.99 51.824C130.142 50.336 131.714 49.268 133.706 48.62C131.954 47.852 131.078 46.532 131.078 44.66C131.078 43.316 131.666 42.2 132.842 41.312C134.018 40.4 135.602 39.944 137.594 39.944C139.034 39.944 140.198 40.184 141.086 40.664C141.974 41.144 142.73 41.876 143.354 42.86L141.374 44.264C141.038 41.624 139.802 40.304 137.666 40.304C136.37 40.304 135.35 40.676 134.606 41.42C133.862 42.14 133.49 43.244 133.49 44.732C133.49 46.508 134.054 47.684 135.182 48.26C135.95 48.092 136.838 48.008 137.846 48.008C138.71 48.008 139.166 48.176 139.214 48.512C139.262 48.872 138.758 49.1 137.702 49.196L136.874 49.232C136.082 49.232 135.386 49.148 134.786 48.98C133.394 49.508 132.242 50.504 131.33 51.968C130.442 53.432 129.998 55.1 129.998 56.972C129.998 59.492 130.55 61.4 131.654 62.696C132.758 63.992 134.342 64.64 136.406 64.64C138.278 64.64 139.73 64.088 140.762 62.984C141.818 61.856 142.346 60.188 142.346 57.98C142.346 56.3 142.082 55.04 141.554 54.2C141.026 53.336 140.042 52.904 138.602 52.904C137.354 52.904 136.358 53.276 135.614 54.02C134.894 54.74 134.534 55.604 134.534 56.612C134.534 58.124 135.314 59 136.874 59.24L135.938 60.68C135.314 60.344 134.822 59.828 134.462 59.132C134.102 58.436 133.922 57.668 133.922 56.828C133.922 55.508 134.246 54.416 134.894 53.552C135.566 52.664 136.382 52.052 137.342 51.716C138.326 51.356 139.394 51.044 140.546 50.78C141.698 50.492 142.754 50.264 143.714 50.096C144.698 49.904 145.514 49.568 146.162 49.088C146.834 48.608 147.17 47.984 147.17 47.216H147.35ZM173.954 60.248L175.538 62.336C174.578 63.272 173.378 64.004 171.938 64.532C170.522 65.06 169.154 65.324 167.834 65.324C164.81 65.324 162.314 64.34 160.346 62.372C158.402 60.38 157.43 57.692 157.43 54.308C157.43 51.068 158.414 48.416 160.382 46.352C162.35 44.288 164.822 43.256 167.798 43.256C171.014 43.256 173.51 44.288 175.286 46.352L172.01 49.592L171.83 49.412L173.198 47.72C172.886 46.52 172.226 45.524 171.218 44.732C170.21 43.94 169.07 43.544 167.798 43.544C166.406 43.544 165.23 43.82 164.27 44.372C163.31 44.9 162.566 45.68 162.038 46.712C161.534 47.72 161.174 48.836 160.958 50.06C160.742 51.284 160.634 52.7 160.634 54.308C160.634 55.844 160.742 57.224 160.958 58.448C161.174 59.648 161.534 60.764 162.038 61.796C162.566 62.804 163.31 63.584 164.27 64.136C165.254 64.688 166.442 64.964 167.834 64.964C169.202 64.964 170.474 64.496 171.65 63.56C172.826 62.624 173.594 61.52 173.954 60.248ZM188.285 65.324C185.165 65.324 182.717 64.28 180.941 62.192C179.189 60.08 178.313 57.476 178.313 54.38C178.313 51.26 179.201 48.632 180.977 46.496C182.753 44.36 185.189 43.292 188.285 43.292C191.381 43.292 193.805 44.36 195.557 46.496C197.309 48.632 198.185 51.26 198.185 54.38C198.185 57.476 197.309 60.08 195.557 62.192C193.805 64.28 191.381 65.324 188.285 65.324ZM188.285 65C190.637 65 192.341 64.1 193.397 62.3C194.477 60.5 195.017 57.86 195.017 54.38C195.017 50.876 194.489 48.212 193.433 46.388C192.377 44.54 190.661 43.616 188.285 43.616C183.749 43.616 181.481 47.204 181.481 54.38C181.481 57.836 182.021 60.476 183.101 62.3C184.181 64.1 185.909 65 188.285 65ZM203.83 62.192C204.166 62.528 204.334 62.936 204.334 63.416C204.334 63.896 204.166 64.304 203.83 64.64C203.518 64.976 203.122 65.144 202.642 65.144C202.138 65.144 201.718 64.976 201.382 64.64C201.07 64.304 200.914 63.896 200.914 63.416C200.914 62.936 201.07 62.528 201.382 62.192C201.718 61.856 202.138 61.688 202.642 61.688C203.122 61.688 203.518 61.856 203.83 62.192Z" fill="#FEEFEF"/>
</svg>
