<svg width="96" height="65" viewBox="0 0 96 65" fill="none" xmlns="http://www.w3.org/2000/svg">
<rect width="96" height="65" rx="1" fill="#0D0D11"/>
<path d="M60.5753 46.92C60.5753 47.0267 60.5886 47.12 60.6153 47.2C60.6686 47.28 60.7353 47.3467 60.8153 47.4C60.922 47.4533 61.0153 47.5067 61.0953 47.56C61.202 47.6133 61.3353 47.6533 61.4953 47.68C61.682 47.7067 61.8286 47.7333 61.9353 47.76C62.042 47.76 62.1886 47.7733 62.3753 47.8C62.5886 47.8 62.7486 47.8133 62.8553 47.84C62.962 47.84 63.1086 47.84 63.2953 47.84C63.5086 47.84 63.642 47.84 63.6953 47.84L63.6553 48H55.8953L55.8553 47.84C57.9353 47.76 58.9753 47.4533 58.9753 46.92V22.2L47.7353 47.44H46.9353L35.7353 22.24V46.92C35.7353 47.0267 35.7486 47.12 35.7753 47.2C35.8286 47.28 35.8953 47.3467 35.9753 47.4C36.082 47.4533 36.1753 47.5067 36.2553 47.56C36.362 47.6133 36.4953 47.6533 36.6553 47.68C36.842 47.7067 36.9886 47.7333 37.0953 47.76C37.202 47.76 37.3486 47.7733 37.5353 47.8C37.7486 47.8 37.9086 47.8133 38.0153 47.84C38.122 47.84 38.2686 47.84 38.4553 47.84C38.6686 47.84 38.802 47.84 38.8553 47.84L38.8153 48H32.3353L32.2953 47.84C34.3753 47.76 35.4153 47.4533 35.4153 46.92V21.76C35.4153 21.6533 35.3886 21.56 35.3353 21.48C35.3086 21.4 35.242 21.3333 35.1353 21.28C35.0553 21.2267 34.962 21.1733 34.8553 21.12C34.7753 21.0667 34.642 21.0267 34.4553 21C34.2953 20.9733 34.162 20.96 34.0553 20.96C33.9486 20.9333 33.7886 20.92 33.5753 20.92C33.3886 20.8933 33.242 20.88 33.1353 20.88C33.0286 20.8533 32.8686 20.84 32.6553 20.84C32.4686 20.84 32.3486 20.84 32.2953 20.84L32.3353 20.68H36.7753L48.0553 45.96L59.2553 20.68H63.6553L63.6953 20.84C61.6153 20.92 60.5753 21.2267 60.5753 21.76V46.92Z" fill="#FEEFEF"/>
</svg>
